<svg width="22" height="22" viewBox="0 0 22 22" fill="none" xmlns="http://www.w3.org/2000/svg">
<path d="M19.5 20.3284H11.5M1 20.8284L6.54927 18.6941C6.90421 18.5576 7.08168 18.4893 7.24772 18.4002C7.3952 18.321 7.5358 18.2297 7.66804 18.127C7.81692 18.0115 7.95137 17.8771 8.22028 17.6082L19.5 6.32843C20.6046 5.22386 20.6046 3.433 19.5 2.32843C18.3955 1.22386 16.6046 1.22386 15.5 2.32842L4.22028 13.6081C3.95138 13.8771 3.81692 14.0115 3.70139 14.1604C3.59877 14.2926 3.5074 14.4332 3.42823 14.5807C3.33911 14.7468 3.27085 14.9242 3.13433 15.2792L1 20.8284ZM1 20.8284L3.05812 15.4774C3.2054 15.0945 3.27903 14.903 3.40534 14.8153C3.51572 14.7387 3.6523 14.7097 3.7843 14.7349C3.93533 14.7637 4.08038 14.9088 4.37048 15.1989L6.62957 17.458C6.91967 17.7481 7.06472 17.8931 7.09356 18.0442C7.11877 18.1762 7.08979 18.3127 7.01314 18.4231C6.92545 18.5494 6.73399 18.6231 6.35107 18.7703L1 20.8284Z" stroke="black" stroke-width="2" stroke-linecap="round" stroke-linejoin="round"/>
</svg>
