<svg width="24" height="25" fill="none" xmlns="http://www.w3.org/2000/svg"><path d="M12 21.5l-.1-.15c-.695-1.042-1.042-1.563-1.5-1.94a4 4 0 0 0-1.378-.737c-.569-.173-1.195-.173-2.447-.173H5.2c-1.12 0-1.68 0-2.108-.218a2 2 0 0 1-.874-.874C2 16.98 2 16.42 2 15.3V6.7c0-1.12 0-1.68.218-2.108a2 2 0 0 1 .874-.874C3.52 3.5 4.08 3.5 5.2 3.5h.4c2.24 0 3.36 0 4.216.436a4 4 0 0 1 1.748 1.748C12 6.54 12 7.66 12 9.9m0 11.6V9.9m0 11.6l.1-.15c.695-1.042 1.042-1.563 1.5-1.94a3.999 3.999 0 0 1 1.378-.737c.569-.173 1.195-.173 2.447-.173H18.8c1.12 0 1.68 0 2.108-.218a2 2 0 0 0 .874-.874C22 16.98 22 16.42 22 15.3V6.7c0-1.12 0-1.68-.218-2.108a2 2 0 0 0-.874-.874C20.48 3.5 19.92 3.5 18.8 3.5h-.4c-2.24 0-3.36 0-4.216.436a4 4 0 0 0-1.748 1.748C12 6.54 12 7.66 12 9.9" stroke="#000" stroke-width="2" stroke-linecap="round" stroke-linejoin="round"/></svg>