<svg width="24" height="25" fill="none" xmlns="http://www.w3.org/2000/svg"><path d="M14 17.5l3-3-3-3m-4-4l-3 3 3 3m-2.2 8h8.4c1.68 0 2.52 0 3.162-.327a3 3 0 0 0 1.311-1.311C21 19.22 21 18.38 21 16.7V8.3c0-1.68 0-2.52-.327-3.162a3 3 0 0 0-1.311-1.311C18.72 3.5 17.88 3.5 16.2 3.5H7.8c-1.68 0-2.52 0-3.162.327a3 3 0 0 0-1.311 1.311C3 5.78 3 6.62 3 8.3v8.4c0 1.68 0 2.52.327 3.162a3 3 0 0 0 1.311 1.311c.642.327 1.482.327 3.162.327z" stroke="#000" stroke-width="2" stroke-linecap="round" stroke-linejoin="round"/></svg>