<svg width="22" height="21" viewBox="0 0 22 21" fill="none" xmlns="http://www.w3.org/2000/svg">
<path d="M10 9.5H5.2C4.07989 9.5 3.51984 9.5 3.09202 9.71799C2.71569 9.90973 2.40973 10.2157 2.21799 10.592C2 11.0198 2 11.5799 2 12.7V19.5M20 19.5V4.7C20 3.5799 20 3.01984 19.782 2.59202C19.5903 2.21569 19.2843 1.90973 18.908 1.71799C18.4802 1.5 17.9201 1.5 16.8 1.5H13.2C12.0799 1.5 11.5198 1.5 11.092 1.71799C10.7157 1.90973 10.4097 2.21569 10.218 2.59202C10 3.01984 10 3.5799 10 4.7V19.5M21 19.5H1M13.5 5.5H16.5M13.5 9.5H16.5M13.5 13.5H16.5" stroke="black" stroke-width="2" stroke-linecap="round" stroke-linejoin="round"/>
</svg>
