<svg width="26" height="27" fill="none" xmlns="http://www.w3.org/2000/svg"><path d="M22.6 8.1V5.34c0-1.344 0-2.016-.262-2.53a2.4 2.4 0 0 0-1.048-1.048c-.514-.262-1.186-.262-2.53-.262H4.84c-1.344 0-2.016 0-2.53.262A2.4 2.4 0 0 0 1.262 2.81C1 3.324 1 3.996 1 5.34v11.52c0 1.344 0 2.016.262 2.53a2.4 2.4 0 0 0 1.048 1.048M22.6 14.1v2.76c0 1.344 0 2.016-.262 2.53a2.4 2.4 0 0 1-1.048 1.048M16.6 11.1c0-.558 0-.836.046-1.068a2.4 2.4 0 0 1 1.886-1.886c.232-.046.51-.046 1.068-.046H22c.558 0 .836 0 1.068.046a2.4 2.4 0 0 1 1.886 1.886c.046.232.046.51.046 1.068s0 .836-.046 1.068a2.4 2.4 0 0 1-1.886 1.886c-.232.046-.51.046-1.068.046h-2.4c-.558 0-.836 0-1.068-.046a2.4 2.4 0 0 1-1.886-1.886c-.046-.232-.046-.51-.046-1.068zm1.2 8.4l-6 6m0 0l-6-6m6 6V11.1" stroke="#000" stroke-width="2" stroke-linecap="round" stroke-linejoin="round"/></svg>