<svg width="25" height="24" viewBox="0 0 25 24" fill="none" xmlns="http://www.w3.org/2000/svg">
<path fill-rule="evenodd" clip-rule="evenodd" d="M1 4.72498V0.5L9.45891 5.26239C11.5669 6.44922 12.9456 8.58392 13.1824 10.961C13.7971 10.1112 14.5958 9.38836 15.5411 8.85614L24 4.09375V8.31873C24 10.9492 22.5851 13.3763 20.2961 14.6724L13.2188 18.6797V21.8545H16.8125C17.2095 21.8545 17.5312 22.1763 17.5312 22.5732C17.5312 22.9702 17.2095 23.292 16.8125 23.292H13.2188H11.7812H8.1875C7.79055 23.292 7.46875 22.9702 7.46875 22.5732C7.46875 22.1763 7.79055 21.8545 8.1875 21.8545H11.7812V19.4937V15.2877V15.086L4.70392 11.0787C2.41492 9.78259 1 7.35545 1 4.72498ZM19.5878 13.4215L13.2188 17.0278V15.8999V15.2877C13.2188 13.1414 14.376 11.1617 16.2463 10.1088L22.5625 6.55273V8.31873C22.5625 10.4313 21.4261 12.3806 19.5878 13.4215ZM11.7812 11.694V11.792V13.4341L5.41221 9.82777C3.57385 8.78686 2.4375 6.83757 2.4375 4.72498V2.95898L8.75369 6.51501C10.624 7.568 11.7812 9.5476 11.7812 11.694Z" fill="#212121"/>
<path d="M1 0.5L1.12265 0.282153L0.75 0.0723508V0.5H1ZM9.45891 5.26239L9.33627 5.48024L9.33627 5.48024L9.45891 5.26239ZM13.1824 10.961L12.9336 10.9858L12.9989 11.6412L13.3849 11.1076L13.1824 10.961ZM15.5411 8.85614L15.4184 8.63829L15.4184 8.63829L15.5411 8.85614ZM24 4.09375H24.25V3.6661L23.8774 3.8759L24 4.09375ZM20.2961 14.6724L20.4193 14.89L20.4193 14.89L20.2961 14.6724ZM13.2188 18.6797L13.0956 18.4622L12.9688 18.534V18.6797H13.2188ZM13.2188 21.8545H12.9688V22.1045H13.2188V21.8545ZM11.7812 21.8545V22.1045H12.0312V21.8545H11.7812ZM11.7812 15.086H12.0312V14.9403L11.9044 14.8684L11.7812 15.086ZM4.70392 11.0787L4.58074 11.2962L4.58074 11.2962L4.70392 11.0787ZM13.2188 17.0278H12.9688V17.4567L13.3419 17.2453L13.2188 17.0278ZM19.5878 13.4215L19.711 13.6391L19.711 13.6391L19.5878 13.4215ZM16.2463 10.1088L16.1237 9.89092L16.1237 9.89092L16.2463 10.1088ZM22.5625 6.55273H22.8125V6.12508L22.4399 6.33489L22.5625 6.55273ZM11.7812 13.4341L11.6581 13.6516L12.0312 13.8629V13.4341H11.7812ZM5.41221 9.82777L5.28903 10.0453L5.28903 10.0453L5.41221 9.82777ZM2.4375 2.95898L2.56015 2.74114L2.1875 2.53133V2.95898H2.4375ZM8.75369 6.51501L8.87633 6.29717L8.87633 6.29717L8.75369 6.51501ZM0.75 0.5V4.72498H1.25V0.5H0.75ZM9.58156 5.04454L1.12265 0.282153L0.877352 0.717847L9.33627 5.48024L9.58156 5.04454ZM13.4311 10.9362C13.1863 8.47858 11.761 6.27158 9.58156 5.04454L9.33627 5.48024C11.3729 6.62685 12.7048 8.68925 12.9336 10.9858L13.4311 10.9362ZM15.4184 8.63829C14.4411 9.18852 13.6154 9.93588 12.9798 10.8145L13.3849 11.1076C13.9789 10.2865 14.7504 9.5882 15.6637 9.07399L15.4184 8.63829ZM23.8774 3.8759L15.4184 8.63829L15.6637 9.07399L24.1226 4.3116L23.8774 3.8759ZM24.25 8.31873V4.09375H23.75V8.31873H24.25ZM20.4193 14.89C22.7866 13.5495 24.25 11.0393 24.25 8.31873H23.75C23.75 10.8591 22.3835 13.2032 20.1729 14.4549L20.4193 14.89ZM13.3419 18.8973L20.4193 14.89L20.1729 14.4549L13.0956 18.4622L13.3419 18.8973ZM13.4688 21.8545V18.6797H12.9688V21.8545H13.4688ZM13.2188 22.1045H16.8125V21.6045H13.2188V22.1045ZM16.8125 22.1045C17.0714 22.1045 17.2812 22.3143 17.2812 22.5732H17.7812C17.7812 22.0382 17.3475 21.6045 16.8125 21.6045V22.1045ZM17.2812 22.5732C17.2812 22.8321 17.0714 23.042 16.8125 23.042V23.542C17.3475 23.542 17.7812 23.1082 17.7812 22.5732H17.2812ZM16.8125 23.042H13.2188V23.542H16.8125V23.042ZM13.2188 23.042H11.7812V23.542H13.2188V23.042ZM11.7812 23.042H8.1875V23.542H11.7812V23.042ZM8.1875 23.042C7.92862 23.042 7.71875 22.8321 7.71875 22.5732H7.21875C7.21875 23.1083 7.65247 23.542 8.1875 23.542V23.042ZM7.71875 22.5732C7.71875 22.3143 7.92862 22.1045 8.1875 22.1045V21.6045C7.65247 21.6045 7.21875 22.0382 7.21875 22.5732H7.71875ZM8.1875 22.1045H11.7812V21.6045H8.1875V22.1045ZM11.5312 19.4937V21.8545H12.0312V19.4937H11.5312ZM11.5312 15.2877V19.4937H12.0312V15.2877H11.5312ZM11.5312 15.086V15.2877H12.0312V15.086H11.5312ZM4.58074 11.2962L11.6581 15.3035L11.9044 14.8684L4.8271 10.8611L4.58074 11.2962ZM0.75 4.72498C0.75 7.44551 2.21336 9.95576 4.58074 11.2962L4.8271 10.8611C2.61647 9.60942 1.25 7.26538 1.25 4.72498H0.75ZM13.3419 17.2453L19.711 13.6391L19.4646 13.204L13.0956 16.8103L13.3419 17.2453ZM12.9688 15.8999V17.0278H13.4688V15.8999H12.9688ZM12.9688 15.2877V15.8999H13.4688V15.2877H12.9688ZM16.1237 9.89092C14.1747 10.9882 12.9688 13.0511 12.9688 15.2877H13.4688C13.4688 13.2316 14.5773 11.3353 16.369 10.3266L16.1237 9.89092ZM22.4399 6.33489L16.1237 9.89092L16.369 10.3266L22.6851 6.77058L22.4399 6.33489ZM22.8125 8.31873V6.55273H22.3125V8.31873H22.8125ZM19.711 13.6391C21.6277 12.5538 22.8125 10.5214 22.8125 8.31873H22.3125C22.3125 10.3413 21.2246 12.2074 19.4646 13.204L19.711 13.6391ZM12.0312 11.792V11.694H11.5312V11.792H12.0312ZM12.0312 13.4341V11.792H11.5312V13.4341H12.0312ZM5.28903 10.0453L11.6581 13.6516L11.9044 13.2165L5.53538 9.61022L5.28903 10.0453ZM2.1875 4.72498C2.1875 6.92763 3.3723 8.96003 5.28903 10.0453L5.53538 9.61022C3.77541 8.61369 2.6875 6.7475 2.6875 4.72498H2.1875ZM2.1875 2.95898V4.72498H2.6875V2.95898H2.1875ZM8.87633 6.29717L2.56015 2.74114L2.31485 3.17683L8.63104 6.73286L8.87633 6.29717ZM12.0312 11.694C12.0312 9.45732 10.8253 7.39445 8.87633 6.29717L8.63104 6.73286C10.4227 7.74155 11.5312 9.63789 11.5312 11.694H12.0312Z" fill="black"/>
</svg>
