<svg width="24" height="23" viewBox="0 0 24 23" fill="none" xmlns="http://www.w3.org/2000/svg">
<path d="M4.66667 21.468C5.24285 21.5 5.95316 21.5 6.86667 21.5H10.4286M4.66667 21.468C3.94761 21.4281 3.43747 21.3384 3.00203 21.1367C2.31211 20.8171 1.75118 20.3072 1.39964 19.68C1 18.9669 1 18.0335 1 16.1667V6.83333C1 4.96649 1 4.03307 1.39964 3.32003C1.75118 2.69282 2.31211 2.18289 3.00203 1.86331C3.78638 1.5 4.81314 1.5 6.86667 1.5H17.1333C19.1869 1.5 20.2136 1.5 20.998 1.86331C21.6879 2.18289 22.2488 2.69282 22.6004 3.32003C23 4.03307 23 4.96649 23 6.83333V16.1667C23 18.0335 23 18.9669 22.6004 19.68C22.2488 20.3072 21.6879 20.8171 20.998 21.1367C20.5625 21.3384 20.0524 21.4281 19.3333 21.468C18.7572 21.5 18.0468 21.5 17.1333 21.5H10.4286M4.66667 21.468V14.8333H10.4286V21.5M13.5714 14.8333H19.3333M13.5714 18.1667H19.3333M4.66667 5.94444H19.3333V11.5H4.66667V5.94444Z" stroke="black" stroke-width="2" stroke-linecap="round" stroke-linejoin="round"/>
</svg>
