<?xml version="1.0" encoding="UTF-8"?>
<svg id="Layer_2" data-name="Layer 2" xmlns="http://www.w3.org/2000/svg" viewBox="0 0 641.34 171.89">
  <defs>
    <style>
      .cls-1 {
        fill: #00ed75;
      }

      .cls-2 {
        fill: #000f15;
      }
    </style>
  </defs>
  <g id="Layer_1-2" data-name="Layer 1">
    <g>
      <g>
        <path class="cls-1" d="M85.94,138.09c-28.76,0-52.15-23.39-52.15-52.15s23.4-52.15,52.15-52.15c23.96,0,44.18,16.24,50.27,38.29h34.54C164.1,31.26,128.61,0,85.94,0,38.55,0,0,38.55,0,85.94s38.55,85.94,85.94,85.94c42.67,0,78.16-31.26,84.81-72.09h-34.54c-6.09,22.05-26.31,38.29-50.27,38.29"/>
        <path class="cls-1" d="M85.94,60.83c-13.87,0-25.11,11.24-25.11,25.11s11.24,25.11,25.11,25.11c8.74,0,16.44-4.47,20.94-11.26,2.64-3.97,4.18-8.73,4.18-13.86s-1.54-9.89-4.18-13.86c-4.5-6.78-12.19-11.26-20.94-11.26"/>
        <path class="cls-2" d="M200.32,51.97c0-12.89,6.36-20.4,17.42-20.4,8.25,0,14.09,5.21,15.41,13.98h-6.76c-1.2-5.39-4.12-8.19-8.82-8.19-6.76,0-10.54,5.27-10.54,14.61s3.67,14.61,10.43,14.61c4.76,0,7.62-2.69,8.88-8.19h6.82c-1.32,8.82-7.16,13.98-15.7,13.98-10.89,0-17.13-7.51-17.13-20.4"/>
      </g>
      <polygon class="cls-2" points="260.1 66.58 260.1 72.02 237.01 72.02 237.01 66.58 245.49 66.58 245.49 37.36 237.01 37.36 237.01 31.92 251.67 31.92 251.67 66.58 260.1 66.58"/>
      <g>
        <path class="cls-2" d="M273.79,34.04c0-2.35,1.83-4.07,4.12-4.07s4.18,1.72,4.18,4.07-1.83,4.13-4.18,4.13-4.12-1.72-4.12-4.13m15.64,32.54v5.44h-23.09v-5.44h8.48v-18.45h-8.48v-5.44h14.72v23.89h8.36Z"/>
        <path class="cls-2" d="M333.89,53.17v18.85h-6.02v-18.28c0-3.49-1.55-5.84-4.81-5.84s-5.27,2.58-5.27,6.02v18.1h-6.02v-18.28c0-3.21-1.26-5.84-4.93-5.84-3.32,0-5.16,2.58-5.16,6.19v17.93h-6.02v-29.33h5.1l.4,2.98c1.6-2.12,4.12-3.32,7.28-3.32,3.38,0,6.13,1.66,7.56,4.35,1.78-2.69,4.58-4.35,8.25-4.35,5.96,0,9.63,4.01,9.63,10.83"/>
        <path class="cls-2" d="M360.36,58.96h-7.56c-3.78,0-5.9,1.43-5.9,4.41,0,2.46,2.06,4.18,5.39,4.18,5.04,0,8.08-3.04,8.08-7.45v-1.15Zm9.17,7.68v5.39h-3.21c-3.84,0-5.27-1.66-5.33-4.47-1.95,2.86-4.98,4.81-9.57,4.81-6.36,0-10.77-3.15-10.77-8.59,0-6.07,4.3-9.4,12.43-9.4h7.28v-1.78c0-3.27-2.35-5.27-6.36-5.27-3.61,0-6.02,1.72-6.47,4.3h-6.13c.69-5.67,5.5-9.28,12.89-9.28s12.2,3.72,12.2,10.66v11.74c0,1.49,.52,1.89,1.83,1.89h1.2Z"/>
        <path class="cls-2" d="M387.35,72.02c-5.61,0-8.02-2.64-8.02-7.96v-15.93h-7.33v-5.44h7.33v-8.19h6.24v8.19h9.97v5.44h-9.97v15.3c0,2.29,.8,3.15,3.15,3.15h7.1v5.44h-8.48Z"/>
        <path class="cls-2" d="M406.95,54.15h15.41c-.52-4.35-3.49-6.82-7.79-6.82-3.84,0-7.16,2.64-7.62,6.82m-.23,4.64v.29c.17,4.98,3.27,8.25,8.08,8.25,3.67,0,6.47-1.89,7.28-5.16h6.19c-1.03,5.79-5.9,10.2-13.12,10.2-9.17,0-14.9-5.96-14.9-14.95s5.73-15.07,14.27-15.07,14.09,5.39,14.27,13.98c0,.63-.06,1.6-.17,2.46h-21.89Z"/>
      </g>
      <path class="cls-2" d="M463.44,56.5h11.74l-5.9-17.59-5.84,17.59Zm-11.69,15.53l13.69-40.11h8.08l13.69,40.11h-6.99l-3.32-9.91h-15.07l-3.38,9.91h-6.7Z"/>
      <g>
        <path class="cls-2" d="M489.79,57.41c0-9.05,5.79-15.07,14.61-15.07,7.51,0,12.2,4.18,13.35,10.83h-6.47c-.8-3.44-3.27-5.56-6.99-5.56-4.93,0-8.19,4.07-8.19,9.8s3.27,9.68,8.19,9.68c3.67,0,6.19-2.18,6.93-5.56h6.53c-1.09,6.65-6.07,10.83-13.52,10.83-8.82,0-14.44-5.79-14.44-14.95"/>
        <path class="cls-2" d="M536.78,72.02c-5.61,0-8.02-2.64-8.02-7.96v-15.93h-7.33v-5.44h7.33v-8.19h6.24v8.19h9.97v5.44h-9.97v15.3c0,2.29,.8,3.15,3.15,3.15h7.1v5.44h-8.48Z"/>
        <path class="cls-2" d="M558.95,34.04c0-2.35,1.83-4.07,4.13-4.07s4.18,1.72,4.18,4.07-1.83,4.13-4.18,4.13-4.13-1.72-4.13-4.13m15.64,32.54v5.44h-23.09v-5.44h8.48v-18.45h-8.48v-5.44h14.72v23.89h8.36Z"/>
        <path class="cls-2" d="M601.41,57.35c0-5.67-3.38-9.74-8.42-9.74s-8.48,4.07-8.48,9.74,3.38,9.74,8.48,9.74,8.42-4.07,8.42-9.74m-23.2,0c0-8.94,5.96-15.01,14.78-15.01s14.78,6.07,14.78,15.01-6.02,15.01-14.78,15.01-14.78-6.02-14.78-15.01"/>
        <path class="cls-2" d="M641.34,55.29v16.73h-6.24v-16.16c0-5.21-2.23-8.08-6.65-8.08-4.64,0-7.45,3.38-7.45,9.05v15.18h-6.19v-29.33h5.39l.69,3.84c1.78-2.29,4.53-4.18,8.99-4.18,6.24,0,11.46,3.38,11.46,12.95"/>
        <path class="cls-2" d="M209.77,134.25h6.42c8.08,0,11.86-5.56,11.86-14.38s-3.78-14.27-11.86-14.27h-6.42v28.65Zm-6.59,5.73v-40.11h13.01c11.8,0,18.56,7.96,18.56,20s-6.76,20.11-18.56,20.11h-13.01Z"/>
        <path class="cls-2" d="M260.02,126.91h-7.56c-3.78,0-5.9,1.43-5.9,4.41,0,2.46,2.06,4.18,5.39,4.18,5.04,0,8.08-3.04,8.08-7.45v-1.14Zm9.17,7.68v5.39h-3.21c-3.84,0-5.27-1.66-5.33-4.47-1.95,2.86-4.98,4.81-9.57,4.81-6.36,0-10.77-3.15-10.77-8.59,0-6.07,4.3-9.4,12.43-9.4h7.28v-1.78c0-3.27-2.35-5.27-6.36-5.27-3.61,0-6.02,1.72-6.47,4.3h-6.13c.69-5.67,5.5-9.28,12.89-9.28s12.2,3.72,12.2,10.66v11.74c0,1.49,.52,1.89,1.83,1.89h1.2Z"/>
        <path class="cls-2" d="M287.01,139.98c-5.61,0-8.02-2.64-8.02-7.96v-15.93h-7.33v-5.44h7.33v-8.19h6.24v8.19h9.97v5.44h-9.97v15.3c0,2.29,.8,3.15,3.15,3.15h7.1v5.44h-8.48Z"/>
        <path class="cls-2" d="M320.12,126.91h-7.56c-3.78,0-5.9,1.43-5.9,4.41,0,2.46,2.06,4.18,5.39,4.18,5.04,0,8.08-3.04,8.08-7.45v-1.14Zm9.17,7.68v5.39h-3.21c-3.84,0-5.27-1.66-5.33-4.47-1.95,2.86-4.98,4.81-9.57,4.81-6.36,0-10.77-3.15-10.77-8.59,0-6.07,4.3-9.4,12.43-9.4h7.28v-1.78c0-3.27-2.35-5.27-6.36-5.27-3.61,0-6.02,1.72-6.47,4.3h-6.13c.69-5.67,5.5-9.28,12.89-9.28s12.2,3.72,12.2,10.66v11.74c0,1.49,.52,1.89,1.83,1.89h1.2Z"/>
      </g>
      <polygon class="cls-2" points="364.24 139.98 364.24 105.72 351.92 105.72 351.92 99.87 383.15 99.87 383.15 105.72 370.83 105.72 370.83 139.98 364.24 139.98"/>
      <g>
        <path class="cls-2" d="M406.89,116.43c-6.02,0-8.02,4.36-8.02,8.94v9.17h8.36v5.44h-20.8v-5.44h6.25v-18.45h-6.25v-5.44h12.09l.23,4.98c1.43-2.58,3.95-4.98,9.11-4.98h3.27v5.79h-4.24Z"/>
        <path class="cls-2" d="M437.37,110.64h6.19v29.33h-5.44l-.69-3.67c-1.78,2.18-4.53,4.01-8.82,4.01-6.02,0-11.34-3.21-11.34-12.95v-16.73h6.24v16.1c0,5.21,2.18,8.08,6.53,8.08s7.33-3.32,7.33-9.11v-15.07Z"/>
        <path class="cls-2" d="M450.26,130.29h6.07c.23,3.04,2.86,5.21,7.28,5.21,3.72,0,6.19-1.49,6.19-3.84,0-3.15-2.64-3.38-7.05-3.95-6.65-.8-11.86-2.23-11.86-8.31,0-5.56,4.93-9.11,11.86-9.11s12.2,3.32,12.6,9.34h-6.07c-.34-2.69-2.81-4.58-6.42-4.58s-5.96,1.49-5.96,3.84c0,2.75,2.81,3.09,6.99,3.55,6.53,.8,11.97,2.18,11.97,8.71,0,5.61-5.27,9.17-12.32,9.17-7.73,0-13.06-3.67-13.29-10.03"/>
        <path class="cls-2" d="M494.95,139.98c-5.61,0-8.02-2.64-8.02-7.96v-15.93h-7.33v-5.44h7.33v-8.19h6.24v8.19h9.97v5.44h-9.97v15.3c0,2.29,.8,3.15,3.15,3.15h7.1v5.44h-8.48Z"/>
      </g>
    </g>
  </g>
</svg>