<svg width="100" height="40" viewBox="0 0 100 40" fill="none" xmlns="http://www.w3.org/2000/svg">
<path d="M60.0964 13.3044H68.789V38.7135H60.0964V13.3044Z" fill="#1E2B2F"/>
<path d="M48.1615 11.3924C44.8194 11.3924 41.402 12.1925 40.5511 13.6817C40.5396 13.7005 40.5284 13.7179 40.5175 13.7373V3.07666L31.5923 3.07666V19.9891V20.0181C32.4801 20.4247 33.3906 20.8893 34.3118 21.4145C34.6234 21.5933 34.887 21.7492 35.0814 21.8661C35.2036 21.9395 35.3255 22.0131 35.4473 22.089C35.4599 22.0969 30.3458 30.0604 23.3812 31.7326C19.2664 32.7213 14.4055 31.5243 13.4208 27.3966C13.3796 27.2254 13.3569 27.0537 13.3303 26.8823C13.9864 26.4916 14.6574 26.133 15.332 25.8006C17.0366 25.0578 18.3374 24.5011 18.8296 24.3122C18.8728 24.2962 18.9165 24.2796 18.9593 24.2639C18.9602 24.2639 18.9613 24.2636 18.9619 24.2636C18.9624 24.2636 18.9624 24.2631 18.9633 24.2625C23.0271 22.7888 26.4381 22.2801 26.4381 22.2801C23.3403 22.0123 20.6804 22.2281 18.4545 22.669C18.4536 22.6679 18.4514 22.6674 18.4514 22.6674C18.4514 22.6674 18.4346 22.6713 18.4046 22.6792C16.3891 23.0827 14.7311 23.6698 13.4437 24.2555C14.1609 21.2805 16.7497 18.6958 19.8133 17.9595C20.0825 17.8949 20.3554 17.8449 20.6291 17.8021C20.7078 17.7901 20.7863 17.7794 20.8653 17.769C21.0779 17.74 21.2917 17.7175 21.5069 17.7001C21.5755 17.6948 21.6447 17.6875 21.7136 17.6838C21.9888 17.6664 22.2647 17.6577 22.5418 17.6588C22.5962 17.6591 22.6505 17.6622 22.7049 17.6625C22.9346 17.6658 23.1643 17.6748 23.3944 17.6894C23.4756 17.6945 23.5566 17.6998 23.6373 17.7063C23.7179 17.7128 23.7986 17.7204 23.879 17.7279C25.1981 17.8642 26.8185 18.2183 28.6149 18.8287V12.9822C27.7481 12.7141 26.8283 12.4544 25.8735 12.2195C23.3565 11.5489 19.0344 10.8351 14.3075 11.9865C6.70463 13.8393 4.54848 19.4642 4.54848 26.3376C4.54848 27.2133 4.61796 28.0328 4.74488 28.8037C3.09442 29.8969 1.47339 31.1523 0 32.585C0 32.585 2.19285 31.607 5.0892 30.3201C7.02262 36.9215 13.7668 39.1423 18.8453 39.1423C24.1416 39.1423 27.5416 37.6303 31.5923 35.103V38.3042H40.5175V22.4245C40.5284 22.4037 40.5396 22.3832 40.5511 22.3619V22.0921C41.4003 19.8225 42.8445 19.2368 44.4496 19.2368C46.571 19.2368 47.8965 20.7434 47.8965 23.1375V38.3042H56.8217V20.5669C56.8217 14.9826 53.3308 11.3924 48.1615 11.3924Z" fill="#1E2B2F"/>
<path d="M64.301 0.857758C61.606 0.857758 59.7057 2.76343 59.7057 5.46695C59.7057 8.17047 61.606 10.0759 64.301 10.0759C66.9959 10.0759 68.8965 8.17047 68.8965 5.46695C68.8965 2.76343 66.9959 0.857758 64.301 0.857758Z" fill="#1E2B2F"/>
<path d="M98.471 23.915H98.4819L98.4724 12.5964H89.5365L89.4878 14.2053C80.8685 8.65216 75.3661 14.363 75.3661 14.363C72.7345 16.7731 71.2073 20.5783 71.2073 25.3561C71.2073 33.8267 76.2836 38.8656 82.8826 38.8656C85.3559 38.8656 87.6345 38.3052 89.6021 35.5772C89.8301 36.2132 90.3378 37.7704 90.7015 38.3052H100C98.4063 35.6806 98.4192 26.58 98.471 23.915ZM84.9662 31.5273C82.0721 31.5273 80.0314 29.0081 80.0314 25.4339C80.0314 21.8598 82.0721 19.3401 84.9662 19.3401C86.9957 19.3401 88.6044 20.5803 89.385 22.5534V28.314C88.6047 30.2871 86.9957 31.5273 84.9662 31.5273Z" fill="#1E2B2F"/>
</svg>
