<svg width="198" height="109" viewBox="0 0 198 109" fill="none" xmlns="http://www.w3.org/2000/svg">
<path fill-rule="evenodd" clip-rule="evenodd" d="M60.2569 6.17285C26.9682 6.22971 0 33.233 0 66.535C0 76.7794 2.55205 86.4278 7.05507 94.8791L11.9012 92.3024C7.80752 84.6194 5.48747 75.8481 5.48747 66.535C5.48747 36.2604 30.004 11.712 60.2664 11.6603L60.2569 6.17285Z" fill="#121928"/>
<path fill-rule="evenodd" clip-rule="evenodd" d="M33.9181 108.793C19.8628 99.9792 10.5176 84.3478 10.5176 66.5336C10.5176 39.129 32.6336 16.8898 59.9913 16.6904L60.0296 22.1778C35.6849 22.3565 16.0051 42.1468 16.0051 66.5336C16.0051 82.3853 24.3201 96.2949 36.8265 104.139L33.9181 108.793Z" fill="#121928"/>
<path fill-rule="evenodd" clip-rule="evenodd" d="M60.225 27.209C38.5684 27.2829 21.0352 44.8617 21.0352 66.5356C21.0352 86.6328 36.1101 103.209 55.5691 105.573L56.2379 100.126C39.4941 98.0918 26.5226 83.8286 26.5226 66.5356C26.5226 47.886 41.6094 32.76 60.2441 32.6964L60.225 27.209Z" fill="#121928"/>
<path fill-rule="evenodd" clip-rule="evenodd" d="M60.2214 37.7266C44.3752 37.8023 31.5527 50.6714 31.5527 66.5355C31.5527 82.4464 44.4511 95.3447 60.362 95.3447C65.2514 95.3447 69.8563 94.1267 73.8898 91.9775L71.3131 87.1314C68.0479 88.8712 64.3201 89.8572 60.362 89.8572C47.4817 89.8572 37.0402 79.4157 37.0402 66.5355C37.0402 53.6931 47.4203 43.2752 60.2482 43.214L60.2214 37.7266Z" fill="#121928"/>
<path fill-rule="evenodd" clip-rule="evenodd" d="M60.3467 48.2441C50.2515 48.2523 42.0703 56.4386 42.0703 66.5357C42.0703 76.6379 50.2597 84.8273 60.3619 84.8273C66.4468 84.8273 71.8377 81.8561 75.1631 77.2853L70.7233 74.0597C68.3956 77.2596 64.6217 79.3398 60.3619 79.3398C53.2904 79.3398 47.5578 73.6072 47.5578 66.5357C47.5578 59.4693 53.2822 53.7398 60.3467 53.7316L60.3467 48.2441Z" fill="#121928"/>
<path d="M74.4312 16.8015C72.0907 16.8015 70.1844 15.0883 70.1844 12.5547C70.1844 10.0211 72.0907 8.30789 74.4312 8.30789C76.072 8.30789 77.4957 9.14036 78.1954 10.5399L82.4663 8.53712C81.0548 5.64159 78.0386 3.8922 74.4312 3.8922C69.3399 3.8922 65.455 7.36684 65.455 12.5547C65.455 17.7425 69.3399 21.2172 74.4312 21.2172C78.0386 21.2172 81.0548 19.4678 82.4663 16.5722L78.1954 14.5695C77.4957 15.969 76.072 16.8015 74.4312 16.8015ZM86.426 6.37754C87.8497 6.37754 89.0199 5.19519 89.0199 3.75949C89.0199 2.34791 87.8497 1.16557 86.426 1.16557C84.9903 1.16557 83.82 2.34791 83.82 3.75949C83.82 5.19519 84.9903 6.37754 86.426 6.37754ZM84.1578 7.72879V21H88.6821V7.72879H84.1578ZM90.5908 7.72879V21H95.1151V14.3644C95.1151 12.4702 96.3457 11.3241 99.193 11.3241V7.51162C97.2385 7.51162 95.8872 8.01834 95.1151 9.20068L94.91 7.72879H90.5908ZM106.507 17.5012C104.951 17.5012 103.672 16.343 103.672 14.3644C103.672 12.3858 104.951 11.2276 106.507 11.2276C107.617 11.2276 108.57 11.8067 109.017 13.0614L113.155 11.4085C112.093 8.98352 109.463 7.51162 106.507 7.51162C102.574 7.51162 99.1598 9.96076 99.1598 14.3644C99.1598 18.768 102.574 21.2172 106.507 21.2172C109.463 21.2172 112.093 19.7453 113.155 17.3203L109.017 15.6674C108.57 16.9221 107.617 17.5012 106.507 17.5012ZM118.739 7.72879H114.215V14.3644C114.215 18.6353 115.506 21.2292 119.318 21.2292C121.285 21.2292 122.684 20.5536 123.324 19.4195L123.529 21H127.848V7.72879H123.324V14.3644C123.324 16.2586 122.491 17.4047 120.899 17.4047C119.342 17.4047 118.739 16.3068 118.739 14.3644V7.72879ZM129.755 2.90289V21H134.279V2.90289H129.755ZM141.653 7.49956C138.239 7.49956 135.573 10.2624 135.573 14.3644C135.573 18.4664 138.239 21.2292 141.653 21.2292C143.608 21.2292 145.116 20.6139 145.755 19.4195L145.96 21H150.28V7.72879H145.96L145.755 9.30927C145.116 8.17518 143.608 7.49956 141.653 7.49956ZM142.92 17.4047C141.364 17.4047 140.097 16.2465 140.097 14.3644C140.097 12.4823 141.364 11.3241 142.92 11.3241C144.489 11.3241 145.755 12.4823 145.755 14.3644C145.755 16.2465 144.489 17.4047 142.92 17.4047ZM151.941 7.72879V21H156.465V14.3644C156.465 12.4702 157.696 11.3241 160.543 11.3241V7.51162C158.589 7.51162 157.237 8.01834 156.465 9.20068L156.26 7.72879H151.941ZM73.5626 28.1094H65.9376V45H73.5626C78.6418 45 82.1285 41.5374 82.1285 36.5547C82.1285 31.5719 78.6418 28.1094 73.5626 28.1094ZM72.9593 41.1875H70.7635V31.9218H72.9593C75.3481 31.9218 77.3026 33.6471 77.3026 36.5547C77.3026 39.3416 75.3481 41.1875 72.9593 41.1875ZM83.5867 31.7288V45H88.1109V38.3644C88.1109 36.4702 89.3415 35.3241 92.1888 35.3241V31.5116C90.2343 31.5116 88.8831 32.0183 88.1109 33.2007L87.9058 31.7288H83.5867ZM95.9873 30.3775C97.411 30.3775 98.5812 29.1952 98.5812 27.7595C98.5812 26.3479 97.411 25.1656 95.9873 25.1656C94.5516 25.1656 93.3813 26.3479 93.3813 27.7595C93.3813 29.1952 94.5516 30.3775 95.9873 30.3775ZM93.7191 31.7288V45H98.2434V31.7288H93.7191ZM110.154 31.7288L107.294 40.9824L104.423 31.7288H99.5971L103.965 45H110.6L114.98 31.7288H110.154ZM122.084 31.4996C118.151 31.4996 114.736 33.9608 114.736 38.3644C114.736 42.768 118.151 45.2292 122.084 45.2292C124.714 45.2292 127.163 44.071 128.454 41.9597L124.605 40.1017C124.05 41.1152 123.242 41.6943 122.084 41.6943C120.865 41.6943 119.804 40.9221 119.418 39.5829H129.238C129.661 34.383 126.475 31.4996 122.084 31.4996ZM122.084 35.0345C123.471 35.0345 124.437 35.8067 124.774 37.1459H119.393C119.743 35.8067 120.696 35.0345 122.084 35.0345ZM65.9376 51.1094V68H70.7635V51.1094H65.9376ZM82.0859 68H86.5981V61.3644C86.5981 57.0935 85.3072 54.4996 81.4947 54.4996C79.5282 54.4996 78.1287 55.1752 77.4892 56.3093L77.2841 54.7288H72.965V68H77.4892V61.3644C77.4892 59.4702 78.3217 58.3241 79.9263 58.3241C81.4827 58.3241 82.0859 59.4099 82.0859 61.3644V68ZM90.7853 53.3775C92.209 53.3775 93.3793 52.1952 93.3793 50.7595C93.3793 49.3479 92.209 48.1656 90.7853 48.1656C89.3496 48.1656 88.1794 49.3479 88.1794 50.7595C88.1794 52.1952 89.3496 53.3775 90.7853 53.3775ZM88.5172 54.7288V68H93.0414V54.7288H88.5172ZM96.3662 51.785V54.7288H94.7616V58.2396H96.3662V62.9811C96.3662 66.4919 97.6692 68.2172 101.216 68.2172C101.892 68.2172 103.135 68.1327 103.846 68.0241V64.3323C103.074 64.465 102.35 64.4771 101.783 64.272C101.18 64.091 100.878 63.6205 100.878 62.8122V58.2396H103.846V54.7288H100.878V51.785H96.3662ZM107.822 53.3775C109.246 53.3775 110.416 52.1952 110.416 50.7595C110.416 49.3479 109.246 48.1656 107.822 48.1656C106.386 48.1656 105.216 49.3479 105.216 50.7595C105.216 52.1952 106.386 53.3775 107.822 53.3775ZM105.554 54.7288V68H110.078V54.7288H105.554ZM117.693 54.4996C114.279 54.4996 111.613 57.2624 111.613 61.3644C111.613 65.4664 114.279 68.2292 117.693 68.2292C119.648 68.2292 121.156 67.6139 121.795 66.4195L122.001 68H126.32V54.7288H122.001L121.795 56.3093C121.156 55.1752 119.648 54.4996 117.693 54.4996ZM118.96 64.4047C117.404 64.4047 116.137 63.2465 116.137 61.3644C116.137 59.4823 117.404 58.3241 118.96 58.3241C120.529 58.3241 121.795 59.4823 121.795 61.3644C121.795 63.2465 120.529 64.4047 118.96 64.4047ZM129.344 51.785V54.7288H127.74V58.2396H129.344V62.9811C129.344 66.4919 130.647 68.2172 134.194 68.2172C134.87 68.2172 136.113 68.1327 136.825 68.0241V64.3323C136.052 64.465 135.329 64.4771 134.762 64.272C134.158 64.091 133.857 63.6205 133.857 62.8122V58.2396H136.825V54.7288H133.857V51.785H129.344ZM140.989 53.3775C142.412 53.3775 143.583 52.1952 143.583 50.7595C143.583 49.3479 142.412 48.1656 140.989 48.1656C139.553 48.1656 138.383 49.3479 138.383 50.7595C138.383 52.1952 139.553 53.3775 140.989 53.3775ZM138.721 54.7288V68H143.245V54.7288H138.721ZM154.673 54.7288L151.813 63.9824L148.942 54.7288H144.116L148.483 68H155.119L159.499 54.7288H154.673ZM166.603 54.4996C162.67 54.4996 159.255 56.9608 159.255 61.3644C159.255 65.768 162.67 68.2292 166.603 68.2292C169.233 68.2292 171.682 67.071 172.973 64.9597L169.124 63.1017C168.569 64.1152 167.761 64.6943 166.603 64.6943C165.384 64.6943 164.323 63.9221 163.936 62.5829H173.757C174.179 57.383 170.994 54.4996 166.603 54.4996ZM166.603 58.0345C167.99 58.0345 168.955 58.8067 169.293 60.1459H163.912C164.262 58.8067 165.215 58.0345 166.603 58.0345Z" fill="#121928"/>
</svg>
